<svg width="90" height="96" viewBox="0 0 90 96" fill="none" xmlns="http://www.w3.org/2000/svg">
<path d="M0 19.9293C0.502034 33.0832 9.25251 45.8022 16.655 56.0715C23.3948 65.4224 31.2968 73.9289 40.1853 81.2118C45.8256 85.8338 51.8701 90.0082 58.3012 93.4245C62.207 95.4977 64.8276 96.7797 69.3736 95.4697C76.3468 93.4626 92.3918 85.1266 89.6984 75.9995C88.3329 71.3698 82.7703 66.8368 79.2511 63.9038C75.0013 60.3603 67.5436 54.1178 62.571 59.9457C59.5914 62.8558 56.5039 69.523 51.8325 69.9835C46.8247 70.477 42.3742 64.5957 39.254 61.3778C34.1408 56.1045 29.5146 50.353 25.4004 44.2479C21.5423 37.8706 26.3643 35.2378 31.0407 31.7681C33.1819 30.1808 35.903 28.6825 36.9447 26.0751C38.8901 21.2088 34.3165 15.1877 31.6834 11.4407C29.2058 7.91498 26.3242 4.67673 23.1563 1.77681C19.007 -2.01853 14.4335 0.99841 10.9544 4.01789C6.12983 8.19734 2.09348 13.8166 0 19.9293Z" fill="white"/>
</svg>
