<svg width="120" height="96" viewBox="0 0 120 96" fill="none" xmlns="http://www.w3.org/2000/svg">
<path d="M116.376 0C115.95 0 115.511 0.0754719 115.074 0.236179L2.34199 42.0239C-0.84362 43.205 -0.758283 47.6273 2.469 48.6923L28.6069 57.3085L44.3681 88.081C44.3721 88.0907 44.378 88.0965 44.382 88.1062L44.4237 88.1875L44.4356 88.1817C44.7214 88.749 45.3149 89.1169 45.95 89.1169C46.3231 89.1169 46.7042 88.9949 47.0337 88.7219L61.7986 76.5082L45.3109 64.3021L46.601 80.3322L34.7498 56.3946L97.7413 19.4842L45.3109 64.3041L86.1263 94.5209C87.4918 95.5316 89.0578 96.0002 90.5941 96.0002C93.8313 96.0002 96.9454 93.9284 97.8227 90.5071L119.887 4.4107C120.485 2.0756 118.615 0 116.376 0Z" fill="white"/>
</svg>
