<svg width="96" height="96" viewBox="0 0 96 96" fill="none" xmlns="http://www.w3.org/2000/svg">
<path d="M44.5317 0.0281572C37.2758 0.722703 31.8057 2.2995 25.8656 5.35926C16.8051 10.0521 9.49273 17.5044 4.96248 26.6649C3.21429 30.1752 2.40599 32.3339 1.4849 35.7878C0.357035 40.1428 0.0186756 42.7896 -0.00012207 47.5951C-0.00012207 49.9979 0.0938665 52.5883 0.225451 53.602C1.25933 61.2983 3.66544 67.9246 7.70695 74.1192L9.06039 76.2029L6.07155 85.0067C4.41735 89.8685 3.10151 93.8481 3.1391 93.8856C3.1767 93.9232 7.2746 92.6467 12.2748 91.0511C17.275 89.4555 21.4293 88.1415 21.5233 88.1415C21.5985 88.1415 22.3692 88.5733 23.2339 89.1177C24.0986 89.6433 25.9032 90.6194 27.2378 91.2576C39.3999 97.058 53.2915 97.5648 65.7356 92.6279C79.8339 87.0528 90.6613 74.8325 94.5337 60.1532C95.7179 55.6481 95.9999 53.189 95.9999 47.9705C95.9999 42.7521 95.7179 40.293 94.5337 35.7878C89.9846 18.5744 76.1683 5.19031 58.724 1.1169C55.7916 0.44113 52.7463 0.0844717 49.0432 0.0281572C46.9754 -0.00938574 44.9453 -0.00938574 44.5317 0.0281572ZM33.0651 22.2911C33.3847 22.4601 33.817 22.9106 34.0426 23.3236C34.5877 24.3185 39.1744 35.2998 39.306 35.9756C39.4751 36.8203 38.6292 38.2657 36.7683 40.3681C34.8133 42.5643 34.3997 43.2589 34.5689 44.0473C34.8885 45.4739 39.2308 51.2368 41.9188 53.7709C46.0731 57.6942 52.3516 61.4297 55.1524 61.6362C56.5999 61.73 57.1074 61.3358 59.3255 58.4075C60.3218 57.0747 61.3745 55.7419 61.694 55.4416C62.4084 54.7095 63.4798 54.5593 64.7017 55.0098C66.2431 55.5918 75.6984 60.1908 76.3751 60.6976L77.0142 61.1669L76.9014 63.1567C76.6382 68.2625 74.8337 70.9093 70.0966 73.2182C65.5852 75.4145 62.0512 75.3581 55.1524 72.9742C45.8664 69.7642 40.9602 66.7045 34.287 60.0031C30.941 56.6617 28.5724 53.8272 25.8656 49.9415C21.3917 43.5592 19.6811 38.6223 20.1887 33.6103C20.6022 29.5932 22.012 26.6274 24.8505 23.7929C26.2227 22.4225 28.0085 21.8594 30.7154 21.9533C31.8621 21.9908 32.7079 22.1034 33.0651 22.2911Z" fill="white"/>
</svg>
